<?xml version="1.0" encoding="UTF-8" standalone="no"?>
<!DOCTYPE svg PUBLIC "-//W3C//DTD SVG 1.1//EN" "http://www.w3.org/Graphics/SVG/1.1/DTD/svg11.dtd">
<svg width="100%" height="100%" viewBox="0 0 1823 1865" version="1.1" xmlns="http://www.w3.org/2000/svg" xmlns:xlink="http://www.w3.org/1999/xlink" xml:space="preserve" xmlns:serif="http://www.serif.com/" style="fill-rule:evenodd;clip-rule:evenodd;stroke-linecap:round;stroke-miterlimit:1.5;">
    <g transform="matrix(1.67722,0,0,1.67722,-1471.96,-857.546)">
        <circle cx="1612.34" cy="940.485" r="352.125" style="fill:white;fill-opacity:0;"/>
        <path d="M1612.34,588.36C1806.68,588.36 1964.46,746.142 1964.46,940.485C1964.46,1134.83 1806.68,1292.61 1612.34,1292.61C1418,1292.61 1260.21,1134.83 1260.21,940.485C1260.21,746.142 1418,588.36 1612.34,588.36ZM1612.34,625.624C1786.12,625.624 1927.2,766.708 1927.2,940.485C1927.2,1114.26 1786.12,1255.35 1612.34,1255.35C1438.56,1255.35 1297.48,1114.26 1297.48,940.485C1297.48,766.708 1438.56,625.624 1612.34,625.624Z"/>
    </g>
    <path d="M1070.53,151.726C1121.97,137.09 1176.22,129.261 1232.28,129.261C1558.24,129.261 1822.87,393.895 1822.87,719.85C1822.87,899.646 1742.35,1060.79 1615.46,1169.13L1615.46,1399.03L807.728,1865.37L0,1399.03L0,466.342L807.728,0L1070.53,151.726Z" style="fill:rgb(235,235,235);fill-opacity:0;"/>
    <path d="M1070.53,151.726C1121.97,137.09 1176.22,129.261 1232.28,129.261C1558.24,129.261 1822.87,393.895 1822.87,719.85C1822.87,899.646 1742.35,1060.79 1615.46,1169.13L1615.46,1399.03L807.728,1865.37L0,1399.03L0,466.342L807.728,0L1070.53,151.726ZM807.728,72.169L62.5,502.427L62.5,1362.94L807.728,1793.2L1552.96,1362.94L1552.96,1140.31L1574.87,1121.6C1688.35,1024.71 1760.37,880.628 1760.37,719.85C1760.37,428.39 1523.74,191.761 1232.28,191.761C1182.15,191.761 1133.63,198.752 1087.63,211.84L1062.18,219.079L807.728,72.169Z"/>
    <g transform="matrix(1.15281,0,0,1.1574,-613.06,-379.81)">
        <circle cx="1612.34" cy="940.485" r="352.125" style="fill:white;fill-opacity:0;"/>
        <path d="M1612.34,588.36C1806.68,588.36 1964.46,746.142 1964.46,940.485C1964.46,1134.83 1806.68,1292.61 1612.34,1292.61C1418,1292.61 1260.21,1134.83 1260.21,940.485C1260.21,746.142 1418,588.36 1612.34,588.36ZM1612.34,642.36C1776.82,642.36 1910.25,776.005 1910.25,940.485C1910.25,1104.96 1776.82,1238.61 1612.34,1238.61C1447.86,1238.61 1314.43,1104.96 1314.43,940.485C1314.43,776.005 1447.86,642.36 1612.34,642.36Z"/>
    </g>
    <g transform="matrix(1,0,0,1,-346.627,1288.15)">
        <path d="M988.322,-111.432C1326.72,-158.827 1521.87,-298.951 1684.14,-471.426C1964.31,-769.212 2066.98,-1123.23 2066.98,-1123.23" style="fill:none;stroke:black;stroke-width:62.5px;"/>
    </g>
</svg>
